<svg width="20" height="19" viewBox="0 0 20 19" fill="none" xmlns="http://www.w3.org/2000/svg">
<path d="M19 9.32001C19 3.83001 14.74 0.100006 10 0.100006C5.31 0.100006 1 3.75001 1 9.38001C0.4 9.72001 0 10.36 0 11.1V13.1C0 14.2 0.9 15.1 2 15.1H3V9.00001C3 5.13001 6.13 2.00001 10 2.00001C13.87 2.00001 17 5.13001 17 9.00001V16.1H9V18.1H17C18.1 18.1 19 17.2 19 16.1V14.88C19.59 14.57 20 13.96 20 13.24V10.94C20 10.24 19.59 9.63001 19 9.32001Z" fill="#AEAFB4"/>
<path d="M6.99988 11.1C7.55216 11.1 7.99988 10.6523 7.99988 10.1C7.99988 9.54774 7.55216 9.10002 6.99988 9.10002C6.44759 9.10002 5.99988 9.54774 5.99988 10.1C5.99988 10.6523 6.44759 11.1 6.99988 11.1Z" fill="#AEAFB4"/>
<path d="M12.9998 11.1C13.5521 11.1 13.9998 10.6523 13.9998 10.1C13.9998 9.54774 13.5521 9.10002 12.9998 9.10002C12.4475 9.10002 11.9998 9.54774 11.9998 10.1C11.9998 10.6523 12.4475 11.1 12.9998 11.1Z" fill="#AEAFB4"/>
<path d="M15.9998 8.13013C15.5198 5.28013 13.0398 3.10013 10.0498 3.10013C7.01985 3.10013 3.75985 5.61013 4.01985 9.55013C6.48985 8.54013 8.34985 6.34013 8.87985 3.66013C10.1898 6.29013 12.8798 8.10013 15.9998 8.13013Z" fill="#AEAFB4"/>
</svg>
