<svg width="45" height="45" viewBox="0 0 45 45" fill="none" xmlns="http://www.w3.org/2000/svg">
<path d="M8.60626 12.9187C9.91876 11.5875 11.2313 10.3875 11.8125 10.6312C12.75 11.0062 11.8125 12.5625 11.25 13.4812C10.7813 14.2687 5.88751 20.775 5.88751 25.3125C5.88751 27.7125 6.78751 29.7 8.40001 30.9C9.80626 31.95 11.6625 32.2687 13.35 31.7625C15.3563 31.1812 17.0063 29.1375 19.0875 26.5687C21.3563 23.775 24.3938 20.1187 26.7375 20.1187C29.7938 20.1187 29.8313 22.0125 30.0375 23.475C22.95 24.675 19.95 30.3562 19.95 33.5437C19.95 36.7312 22.65 39.3375 25.9688 39.3375C29.025 39.3375 34.0125 36.8438 34.7625 27.9H39.375V23.2125H34.7438C34.4625 20.1187 32.7 15.3375 27.1875 15.3375C22.9688 15.3375 19.35 18.9187 17.925 20.6625C16.8375 22.0312 14.0625 25.3125 13.6313 25.7625C13.1625 26.325 12.3563 27.3375 11.55 27.3375C10.7063 27.3375 10.2 25.7812 10.875 23.7375C11.5313 21.6937 13.5 18.375 14.3438 17.1375C15.8063 15 16.7813 13.5375 16.7813 10.9875C16.7813 6.91875 13.7063 5.625 12.075 5.625C9.60001 5.625 7.44376 7.5 6.97501 7.96875C6.30001 8.64375 5.73751 9.20625 5.32501 9.7125L8.60626 12.9187ZM26.025 34.7812C25.4438 34.7812 24.6375 34.2937 24.6375 33.4312C24.6375 32.3062 26.0063 29.3062 30.0188 28.2562C29.4563 33.3 27.3375 34.7812 26.025 34.7812Z" fill="#AEAFB4"/>
</svg>
